<mxfile host="app.diagrams.net" modified="2024-05-03T18:46:01.525Z" agent="Mozilla/5.0 (Windows NT 10.0; Win64; x64) AppleWebKit/537.36 (KHTML, like Gecko) Chrome/124.0.0.0 Safari/537.36" etag="FEndKQJjVhdLnhigcbTu" version="24.3.1" type="device">
  <diagram name="PÃ¡gina-1" id="Xi11lGG5Kb-qVSEgc_Iz">
    <mxGraphModel dx="2963" dy="1569" grid="1" gridSize="10" guides="1" tooltips="1" connect="1" arrows="1" fold="1" page="1" pageScale="1" pageWidth="1169" pageHeight="827" math="0" shadow="0">
      <root>
        <mxCell id="0" />
        <mxCell id="1" parent="0" />
        <mxCell id="_aW_NcULGUtRf_7XObZv-131" value="" style="rounded=0;whiteSpace=wrap;html=1;" vertex="1" parent="1">
          <mxGeometry x="130" y="230" width="860" height="1010" as="geometry" />
        </mxCell>
        <mxCell id="_aW_NcULGUtRf_7XObZv-1" value="" style="verticalLabelPosition=middle;verticalAlign=middle;html=1;shape=trapezoid;perimeter=trapezoidPerimeter;whiteSpace=wrap;size=0.23;arcSize=10;flipV=1;labelPosition=center;align=center;rotation=-90;fillColor=#dae8fc;strokeColor=#6c8ebf;" vertex="1" parent="1">
          <mxGeometry x="260" y="414" width="220" height="150" as="geometry" />
        </mxCell>
        <mxCell id="_aW_NcULGUtRf_7XObZv-3" value="&lt;font style=&quot;font-size: 33px;&quot;&gt;X&lt;/font&gt;" style="text;html=1;align=center;verticalAlign=middle;resizable=0;points=[];autosize=1;strokeColor=none;fillColor=none;" vertex="1" parent="1">
          <mxGeometry x="150" y="464" width="50" height="50" as="geometry" />
        </mxCell>
        <mxCell id="_aW_NcULGUtRf_7XObZv-4" value="&lt;font style=&quot;font-size: 33px;&quot;&gt;Z&lt;/font&gt;" style="text;html=1;align=center;verticalAlign=middle;resizable=0;points=[];autosize=1;strokeColor=none;fillColor=none;" vertex="1" parent="1">
          <mxGeometry x="535" y="466" width="40" height="50" as="geometry" />
        </mxCell>
        <mxCell id="_aW_NcULGUtRf_7XObZv-6" value="" style="endArrow=classic;html=1;rounded=0;entryX=0.5;entryY=0;entryDx=0;entryDy=0;" edge="1" parent="1" source="_aW_NcULGUtRf_7XObZv-3" target="_aW_NcULGUtRf_7XObZv-1">
          <mxGeometry width="50" height="50" relative="1" as="geometry">
            <mxPoint x="200" y="490" as="sourcePoint" />
            <mxPoint x="250" y="440" as="targetPoint" />
          </mxGeometry>
        </mxCell>
        <mxCell id="_aW_NcULGUtRf_7XObZv-7" value="" style="endArrow=classic;html=1;rounded=0;entryX=-0.009;entryY=0.472;entryDx=0;entryDy=0;entryPerimeter=0;exitX=0.5;exitY=1;exitDx=0;exitDy=0;" edge="1" parent="1" source="_aW_NcULGUtRf_7XObZv-1" target="_aW_NcULGUtRf_7XObZv-4">
          <mxGeometry width="50" height="50" relative="1" as="geometry">
            <mxPoint x="440" y="488.83" as="sourcePoint" />
            <mxPoint x="525" y="488.83" as="targetPoint" />
          </mxGeometry>
        </mxCell>
        <mxCell id="_aW_NcULGUtRf_7XObZv-8" value="" style="endArrow=classic;html=1;rounded=0;entryX=0.5;entryY=1;entryDx=0;entryDy=0;exitX=0.983;exitY=0.453;exitDx=0;exitDy=0;exitPerimeter=0;" edge="1" parent="1" source="_aW_NcULGUtRf_7XObZv-4">
          <mxGeometry width="50" height="50" relative="1" as="geometry">
            <mxPoint x="575" y="488.76" as="sourcePoint" />
            <mxPoint x="665" y="489" as="targetPoint" />
          </mxGeometry>
        </mxCell>
        <mxCell id="_aW_NcULGUtRf_7XObZv-9" value="" style="ellipse;whiteSpace=wrap;html=1;aspect=fixed;" vertex="1" parent="1">
          <mxGeometry x="310" y="404" width="20" height="20" as="geometry" />
        </mxCell>
        <mxCell id="_aW_NcULGUtRf_7XObZv-10" value="" style="ellipse;whiteSpace=wrap;html=1;aspect=fixed;" vertex="1" parent="1">
          <mxGeometry x="310" y="430" width="20" height="20" as="geometry" />
        </mxCell>
        <mxCell id="_aW_NcULGUtRf_7XObZv-11" value="" style="ellipse;whiteSpace=wrap;html=1;aspect=fixed;" vertex="1" parent="1">
          <mxGeometry x="310" y="460" width="20" height="20" as="geometry" />
        </mxCell>
        <mxCell id="_aW_NcULGUtRf_7XObZv-12" value="" style="ellipse;whiteSpace=wrap;html=1;aspect=fixed;" vertex="1" parent="1">
          <mxGeometry x="310" y="490" width="20" height="20" as="geometry" />
        </mxCell>
        <mxCell id="_aW_NcULGUtRf_7XObZv-13" value="" style="ellipse;whiteSpace=wrap;html=1;aspect=fixed;" vertex="1" parent="1">
          <mxGeometry x="310" y="520" width="20" height="20" as="geometry" />
        </mxCell>
        <mxCell id="_aW_NcULGUtRf_7XObZv-14" value="" style="ellipse;whiteSpace=wrap;html=1;aspect=fixed;" vertex="1" parent="1">
          <mxGeometry x="310" y="550" width="20" height="20" as="geometry" />
        </mxCell>
        <mxCell id="_aW_NcULGUtRf_7XObZv-15" value="" style="ellipse;whiteSpace=wrap;html=1;aspect=fixed;" vertex="1" parent="1">
          <mxGeometry x="410" y="430" width="20" height="20" as="geometry" />
        </mxCell>
        <mxCell id="_aW_NcULGUtRf_7XObZv-16" value="" style="ellipse;whiteSpace=wrap;html=1;aspect=fixed;" vertex="1" parent="1">
          <mxGeometry x="410" y="460" width="20" height="20" as="geometry" />
        </mxCell>
        <mxCell id="_aW_NcULGUtRf_7XObZv-17" value="" style="ellipse;whiteSpace=wrap;html=1;aspect=fixed;" vertex="1" parent="1">
          <mxGeometry x="410" y="494" width="20" height="20" as="geometry" />
        </mxCell>
        <mxCell id="_aW_NcULGUtRf_7XObZv-18" value="" style="ellipse;whiteSpace=wrap;html=1;aspect=fixed;" vertex="1" parent="1">
          <mxGeometry x="410" y="530" width="20" height="20" as="geometry" />
        </mxCell>
        <mxCell id="_aW_NcULGUtRf_7XObZv-30" value="" style="endArrow=none;html=1;rounded=0;entryX=0;entryY=0.5;entryDx=0;entryDy=0;exitX=1;exitY=0.5;exitDx=0;exitDy=0;" edge="1" parent="1" source="_aW_NcULGUtRf_7XObZv-9" target="_aW_NcULGUtRf_7XObZv-15">
          <mxGeometry width="50" height="50" relative="1" as="geometry">
            <mxPoint x="330" y="410" as="sourcePoint" />
            <mxPoint x="380" y="360" as="targetPoint" />
          </mxGeometry>
        </mxCell>
        <mxCell id="_aW_NcULGUtRf_7XObZv-31" value="" style="endArrow=none;html=1;rounded=0;exitX=1;exitY=0.5;exitDx=0;exitDy=0;entryX=0;entryY=0.5;entryDx=0;entryDy=0;" edge="1" parent="1" source="_aW_NcULGUtRf_7XObZv-9" target="_aW_NcULGUtRf_7XObZv-16">
          <mxGeometry width="50" height="50" relative="1" as="geometry">
            <mxPoint x="360" y="460" as="sourcePoint" />
            <mxPoint x="410" y="410" as="targetPoint" />
          </mxGeometry>
        </mxCell>
        <mxCell id="_aW_NcULGUtRf_7XObZv-32" value="" style="endArrow=none;html=1;rounded=0;exitX=1;exitY=0.5;exitDx=0;exitDy=0;entryX=0;entryY=0.5;entryDx=0;entryDy=0;" edge="1" parent="1" source="_aW_NcULGUtRf_7XObZv-9" target="_aW_NcULGUtRf_7XObZv-17">
          <mxGeometry width="50" height="50" relative="1" as="geometry">
            <mxPoint x="350" y="460" as="sourcePoint" />
            <mxPoint x="400" y="410" as="targetPoint" />
          </mxGeometry>
        </mxCell>
        <mxCell id="_aW_NcULGUtRf_7XObZv-33" value="" style="endArrow=none;html=1;rounded=0;exitX=1;exitY=0.5;exitDx=0;exitDy=0;entryX=0;entryY=0.5;entryDx=0;entryDy=0;" edge="1" parent="1" source="_aW_NcULGUtRf_7XObZv-9" target="_aW_NcULGUtRf_7XObZv-18">
          <mxGeometry width="50" height="50" relative="1" as="geometry">
            <mxPoint x="350" y="470" as="sourcePoint" />
            <mxPoint x="400" y="420" as="targetPoint" />
          </mxGeometry>
        </mxCell>
        <mxCell id="_aW_NcULGUtRf_7XObZv-34" value="" style="endArrow=none;html=1;rounded=0;exitX=1;exitY=0.5;exitDx=0;exitDy=0;entryX=0;entryY=0.5;entryDx=0;entryDy=0;" edge="1" parent="1" source="_aW_NcULGUtRf_7XObZv-10" target="_aW_NcULGUtRf_7XObZv-15">
          <mxGeometry width="50" height="50" relative="1" as="geometry">
            <mxPoint x="350" y="470" as="sourcePoint" />
            <mxPoint x="400" y="420" as="targetPoint" />
          </mxGeometry>
        </mxCell>
        <mxCell id="_aW_NcULGUtRf_7XObZv-35" value="" style="endArrow=none;html=1;rounded=0;exitX=1;exitY=0.5;exitDx=0;exitDy=0;entryX=0;entryY=0.5;entryDx=0;entryDy=0;" edge="1" parent="1" source="_aW_NcULGUtRf_7XObZv-10" target="_aW_NcULGUtRf_7XObZv-16">
          <mxGeometry width="50" height="50" relative="1" as="geometry">
            <mxPoint x="340" y="450" as="sourcePoint" />
            <mxPoint x="420" y="450" as="targetPoint" />
          </mxGeometry>
        </mxCell>
        <mxCell id="_aW_NcULGUtRf_7XObZv-36" value="" style="endArrow=none;html=1;rounded=0;exitX=1;exitY=0.5;exitDx=0;exitDy=0;entryX=0;entryY=0.5;entryDx=0;entryDy=0;" edge="1" parent="1" source="_aW_NcULGUtRf_7XObZv-10" target="_aW_NcULGUtRf_7XObZv-17">
          <mxGeometry width="50" height="50" relative="1" as="geometry">
            <mxPoint x="350" y="460" as="sourcePoint" />
            <mxPoint x="430" y="460" as="targetPoint" />
          </mxGeometry>
        </mxCell>
        <mxCell id="_aW_NcULGUtRf_7XObZv-37" value="" style="endArrow=none;html=1;rounded=0;exitX=1;exitY=0.5;exitDx=0;exitDy=0;entryX=0;entryY=0.5;entryDx=0;entryDy=0;" edge="1" parent="1" source="_aW_NcULGUtRf_7XObZv-10" target="_aW_NcULGUtRf_7XObZv-17">
          <mxGeometry width="50" height="50" relative="1" as="geometry">
            <mxPoint x="360" y="470" as="sourcePoint" />
            <mxPoint x="440" y="470" as="targetPoint" />
          </mxGeometry>
        </mxCell>
        <mxCell id="_aW_NcULGUtRf_7XObZv-38" value="" style="endArrow=none;html=1;rounded=0;exitX=1;exitY=0.5;exitDx=0;exitDy=0;entryX=0;entryY=0.5;entryDx=0;entryDy=0;" edge="1" parent="1" source="_aW_NcULGUtRf_7XObZv-10" target="_aW_NcULGUtRf_7XObZv-18">
          <mxGeometry width="50" height="50" relative="1" as="geometry">
            <mxPoint x="340" y="450" as="sourcePoint" />
            <mxPoint x="420" y="514" as="targetPoint" />
          </mxGeometry>
        </mxCell>
        <mxCell id="_aW_NcULGUtRf_7XObZv-39" value="" style="endArrow=none;html=1;rounded=0;exitX=1;exitY=0.5;exitDx=0;exitDy=0;entryX=0;entryY=0.5;entryDx=0;entryDy=0;" edge="1" parent="1" source="_aW_NcULGUtRf_7XObZv-11" target="_aW_NcULGUtRf_7XObZv-15">
          <mxGeometry width="50" height="50" relative="1" as="geometry">
            <mxPoint x="330" y="490" as="sourcePoint" />
            <mxPoint x="380" y="440" as="targetPoint" />
          </mxGeometry>
        </mxCell>
        <mxCell id="_aW_NcULGUtRf_7XObZv-40" value="" style="endArrow=none;html=1;rounded=0;exitX=1;exitY=0.5;exitDx=0;exitDy=0;entryX=0;entryY=0.5;entryDx=0;entryDy=0;" edge="1" parent="1" source="_aW_NcULGUtRf_7XObZv-11" target="_aW_NcULGUtRf_7XObZv-16">
          <mxGeometry width="50" height="50" relative="1" as="geometry">
            <mxPoint x="350" y="460" as="sourcePoint" />
            <mxPoint x="430" y="524" as="targetPoint" />
          </mxGeometry>
        </mxCell>
        <mxCell id="_aW_NcULGUtRf_7XObZv-41" value="" style="endArrow=none;html=1;rounded=0;exitX=1;exitY=0.5;exitDx=0;exitDy=0;entryX=0;entryY=0.5;entryDx=0;entryDy=0;" edge="1" parent="1" source="_aW_NcULGUtRf_7XObZv-11" target="_aW_NcULGUtRf_7XObZv-15">
          <mxGeometry width="50" height="50" relative="1" as="geometry">
            <mxPoint x="340" y="480" as="sourcePoint" />
            <mxPoint x="420" y="480" as="targetPoint" />
          </mxGeometry>
        </mxCell>
        <mxCell id="_aW_NcULGUtRf_7XObZv-42" value="" style="endArrow=none;html=1;rounded=0;exitX=1;exitY=0.5;exitDx=0;exitDy=0;entryX=0;entryY=0.5;entryDx=0;entryDy=0;" edge="1" parent="1" source="_aW_NcULGUtRf_7XObZv-11" target="_aW_NcULGUtRf_7XObZv-17">
          <mxGeometry width="50" height="50" relative="1" as="geometry">
            <mxPoint x="340" y="480" as="sourcePoint" />
            <mxPoint x="420" y="450" as="targetPoint" />
          </mxGeometry>
        </mxCell>
        <mxCell id="_aW_NcULGUtRf_7XObZv-43" value="" style="endArrow=none;html=1;rounded=0;exitX=1;exitY=0.5;exitDx=0;exitDy=0;entryX=0;entryY=0.5;entryDx=0;entryDy=0;" edge="1" parent="1" source="_aW_NcULGUtRf_7XObZv-11" target="_aW_NcULGUtRf_7XObZv-18">
          <mxGeometry width="50" height="50" relative="1" as="geometry">
            <mxPoint x="350" y="490" as="sourcePoint" />
            <mxPoint x="430" y="460" as="targetPoint" />
          </mxGeometry>
        </mxCell>
        <mxCell id="_aW_NcULGUtRf_7XObZv-44" value="" style="endArrow=none;html=1;rounded=0;exitX=1;exitY=0.5;exitDx=0;exitDy=0;entryX=0;entryY=0.5;entryDx=0;entryDy=0;" edge="1" parent="1" source="_aW_NcULGUtRf_7XObZv-12" target="_aW_NcULGUtRf_7XObZv-18">
          <mxGeometry width="50" height="50" relative="1" as="geometry">
            <mxPoint x="340" y="500" as="sourcePoint" />
            <mxPoint x="420" y="570" as="targetPoint" />
          </mxGeometry>
        </mxCell>
        <mxCell id="_aW_NcULGUtRf_7XObZv-45" value="" style="endArrow=none;html=1;rounded=0;exitX=1;exitY=0.5;exitDx=0;exitDy=0;entryX=0;entryY=0.5;entryDx=0;entryDy=0;" edge="1" parent="1" source="_aW_NcULGUtRf_7XObZv-12" target="_aW_NcULGUtRf_7XObZv-17">
          <mxGeometry width="50" height="50" relative="1" as="geometry">
            <mxPoint x="350" y="490" as="sourcePoint" />
            <mxPoint x="430" y="560" as="targetPoint" />
          </mxGeometry>
        </mxCell>
        <mxCell id="_aW_NcULGUtRf_7XObZv-46" value="" style="endArrow=none;html=1;rounded=0;exitX=1;exitY=0.5;exitDx=0;exitDy=0;entryX=0;entryY=0.5;entryDx=0;entryDy=0;" edge="1" parent="1" source="_aW_NcULGUtRf_7XObZv-12" target="_aW_NcULGUtRf_7XObZv-16">
          <mxGeometry width="50" height="50" relative="1" as="geometry">
            <mxPoint x="360" y="500" as="sourcePoint" />
            <mxPoint x="440" y="570" as="targetPoint" />
          </mxGeometry>
        </mxCell>
        <mxCell id="_aW_NcULGUtRf_7XObZv-47" value="" style="endArrow=none;html=1;rounded=0;exitX=1;exitY=0.5;exitDx=0;exitDy=0;entryX=0;entryY=0.5;entryDx=0;entryDy=0;" edge="1" parent="1" source="_aW_NcULGUtRf_7XObZv-12" target="_aW_NcULGUtRf_7XObZv-15">
          <mxGeometry width="50" height="50" relative="1" as="geometry">
            <mxPoint x="340" y="510" as="sourcePoint" />
            <mxPoint x="420" y="480" as="targetPoint" />
          </mxGeometry>
        </mxCell>
        <mxCell id="_aW_NcULGUtRf_7XObZv-48" value="" style="endArrow=none;html=1;rounded=0;exitX=1;exitY=0.5;exitDx=0;exitDy=0;entryX=0;entryY=0.5;entryDx=0;entryDy=0;" edge="1" parent="1" source="_aW_NcULGUtRf_7XObZv-13" target="_aW_NcULGUtRf_7XObZv-18">
          <mxGeometry width="50" height="50" relative="1" as="geometry">
            <mxPoint x="340" y="510" as="sourcePoint" />
            <mxPoint x="420" y="550" as="targetPoint" />
          </mxGeometry>
        </mxCell>
        <mxCell id="_aW_NcULGUtRf_7XObZv-49" value="" style="endArrow=none;html=1;rounded=0;exitX=1;exitY=0.5;exitDx=0;exitDy=0;entryX=0;entryY=0.5;entryDx=0;entryDy=0;" edge="1" parent="1" source="_aW_NcULGUtRf_7XObZv-13" target="_aW_NcULGUtRf_7XObZv-17">
          <mxGeometry width="50" height="50" relative="1" as="geometry">
            <mxPoint x="340" y="540" as="sourcePoint" />
            <mxPoint x="420" y="550" as="targetPoint" />
          </mxGeometry>
        </mxCell>
        <mxCell id="_aW_NcULGUtRf_7XObZv-50" value="" style="endArrow=none;html=1;rounded=0;exitX=1;exitY=0.5;exitDx=0;exitDy=0;entryX=0;entryY=0.5;entryDx=0;entryDy=0;" edge="1" parent="1" source="_aW_NcULGUtRf_7XObZv-13" target="_aW_NcULGUtRf_7XObZv-16">
          <mxGeometry width="50" height="50" relative="1" as="geometry">
            <mxPoint x="340" y="540" as="sourcePoint" />
            <mxPoint x="420" y="514" as="targetPoint" />
          </mxGeometry>
        </mxCell>
        <mxCell id="_aW_NcULGUtRf_7XObZv-51" value="" style="endArrow=none;html=1;rounded=0;exitX=1;exitY=0.5;exitDx=0;exitDy=0;entryX=0;entryY=0.5;entryDx=0;entryDy=0;" edge="1" parent="1" source="_aW_NcULGUtRf_7XObZv-13" target="_aW_NcULGUtRf_7XObZv-15">
          <mxGeometry width="50" height="50" relative="1" as="geometry">
            <mxPoint x="340" y="540" as="sourcePoint" />
            <mxPoint x="420" y="480" as="targetPoint" />
          </mxGeometry>
        </mxCell>
        <mxCell id="_aW_NcULGUtRf_7XObZv-52" value="" style="endArrow=none;html=1;rounded=0;exitX=1;exitY=0.5;exitDx=0;exitDy=0;entryX=0;entryY=0.5;entryDx=0;entryDy=0;" edge="1" parent="1" source="_aW_NcULGUtRf_7XObZv-14" target="_aW_NcULGUtRf_7XObZv-18">
          <mxGeometry width="50" height="50" relative="1" as="geometry">
            <mxPoint x="340" y="540" as="sourcePoint" />
            <mxPoint x="420" y="550" as="targetPoint" />
          </mxGeometry>
        </mxCell>
        <mxCell id="_aW_NcULGUtRf_7XObZv-88" value="" style="endArrow=none;html=1;rounded=0;exitX=1;exitY=0.5;exitDx=0;exitDy=0;entryX=0;entryY=0.5;entryDx=0;entryDy=0;" edge="1" parent="1" source="_aW_NcULGUtRf_7XObZv-14" target="_aW_NcULGUtRf_7XObZv-17">
          <mxGeometry width="50" height="50" relative="1" as="geometry">
            <mxPoint x="340" y="570" as="sourcePoint" />
            <mxPoint x="420" y="550" as="targetPoint" />
          </mxGeometry>
        </mxCell>
        <mxCell id="_aW_NcULGUtRf_7XObZv-89" value="" style="endArrow=none;html=1;rounded=0;exitX=1;exitY=0.5;exitDx=0;exitDy=0;entryX=0;entryY=0.5;entryDx=0;entryDy=0;" edge="1" parent="1" source="_aW_NcULGUtRf_7XObZv-14" target="_aW_NcULGUtRf_7XObZv-16">
          <mxGeometry width="50" height="50" relative="1" as="geometry">
            <mxPoint x="340" y="570" as="sourcePoint" />
            <mxPoint x="420" y="514" as="targetPoint" />
          </mxGeometry>
        </mxCell>
        <mxCell id="_aW_NcULGUtRf_7XObZv-90" value="" style="endArrow=none;html=1;rounded=0;exitX=1;exitY=0.5;exitDx=0;exitDy=0;entryX=0;entryY=0.5;entryDx=0;entryDy=0;" edge="1" parent="1" source="_aW_NcULGUtRf_7XObZv-14" target="_aW_NcULGUtRf_7XObZv-15">
          <mxGeometry width="50" height="50" relative="1" as="geometry">
            <mxPoint x="340" y="570" as="sourcePoint" />
            <mxPoint x="420" y="480" as="targetPoint" />
          </mxGeometry>
        </mxCell>
        <mxCell id="_aW_NcULGUtRf_7XObZv-129" value="" style="endArrow=classic;html=1;rounded=0;entryX=0.5;entryY=1;entryDx=0;entryDy=0;exitX=0.983;exitY=0.453;exitDx=0;exitDy=0;exitPerimeter=0;" edge="1" parent="1">
          <mxGeometry width="50" height="50" relative="1" as="geometry">
            <mxPoint x="815" y="488.76" as="sourcePoint" />
            <mxPoint x="906" y="488.76" as="targetPoint" />
          </mxGeometry>
        </mxCell>
        <mxCell id="_aW_NcULGUtRf_7XObZv-130" value="&lt;font style=&quot;font-size: 33px;&quot;&gt;(X)Â´&lt;/font&gt;" style="text;html=1;align=center;verticalAlign=middle;resizable=0;points=[];autosize=1;strokeColor=none;fillColor=none;" vertex="1" parent="1">
          <mxGeometry x="900" y="463" width="80" height="50" as="geometry" />
        </mxCell>
        <mxCell id="_aW_NcULGUtRf_7XObZv-133" value="&lt;font style=&quot;font-size: 33px;&quot;&gt;q(z/x)&lt;/font&gt;" style="text;html=1;align=center;verticalAlign=middle;resizable=0;points=[];autosize=1;strokeColor=none;fillColor=none;" vertex="1" parent="1">
          <mxGeometry x="330" y="590" width="110" height="50" as="geometry" />
        </mxCell>
        <mxCell id="_aW_NcULGUtRf_7XObZv-135" value="&lt;font style=&quot;font-size: 33px;&quot;&gt;p(x/z)&lt;/font&gt;" style="text;html=1;align=center;verticalAlign=middle;resizable=0;points=[];autosize=1;strokeColor=none;fillColor=none;" vertex="1" parent="1">
          <mxGeometry x="665" y="590" width="110" height="50" as="geometry" />
        </mxCell>
        <mxCell id="_aW_NcULGUtRf_7XObZv-136" value="&lt;font style=&quot;font-size: 38px;&quot;&gt;Variational Autoencoder&lt;/font&gt;" style="text;html=1;align=center;verticalAlign=middle;whiteSpace=wrap;rounded=0;" vertex="1" parent="1">
          <mxGeometry x="332" y="250" width="505" height="110" as="geometry" />
        </mxCell>
        <mxCell id="_aW_NcULGUtRf_7XObZv-174" value="" style="group;direction=west;rotation=-180;" vertex="1" connectable="0" parent="1">
          <mxGeometry x="665" y="378" width="150" height="220" as="geometry" />
        </mxCell>
        <mxCell id="_aW_NcULGUtRf_7XObZv-137" value="" style="verticalLabelPosition=middle;verticalAlign=middle;html=1;shape=trapezoid;perimeter=trapezoidPerimeter;whiteSpace=wrap;size=0.23;arcSize=10;flipV=1;labelPosition=center;align=center;rotation=-270;fillColor=#e1d5e7;strokeColor=#9673a6;" vertex="1" parent="_aW_NcULGUtRf_7XObZv-174">
          <mxGeometry x="-35" y="36" width="220" height="150" as="geometry" />
        </mxCell>
        <mxCell id="_aW_NcULGUtRf_7XObZv-138" value="" style="ellipse;whiteSpace=wrap;html=1;aspect=fixed;rotation=-180;" vertex="1" parent="_aW_NcULGUtRf_7XObZv-174">
          <mxGeometry x="115" y="175" width="20" height="20" as="geometry" />
        </mxCell>
        <mxCell id="_aW_NcULGUtRf_7XObZv-139" value="" style="ellipse;whiteSpace=wrap;html=1;aspect=fixed;rotation=-180;" vertex="1" parent="_aW_NcULGUtRf_7XObZv-174">
          <mxGeometry x="115" y="149" width="20" height="20" as="geometry" />
        </mxCell>
        <mxCell id="_aW_NcULGUtRf_7XObZv-140" value="" style="ellipse;whiteSpace=wrap;html=1;aspect=fixed;rotation=-180;" vertex="1" parent="_aW_NcULGUtRf_7XObZv-174">
          <mxGeometry x="115" y="119" width="20" height="20" as="geometry" />
        </mxCell>
        <mxCell id="_aW_NcULGUtRf_7XObZv-141" value="" style="ellipse;whiteSpace=wrap;html=1;aspect=fixed;rotation=-180;" vertex="1" parent="_aW_NcULGUtRf_7XObZv-174">
          <mxGeometry x="115" y="89" width="20" height="20" as="geometry" />
        </mxCell>
        <mxCell id="_aW_NcULGUtRf_7XObZv-142" value="" style="ellipse;whiteSpace=wrap;html=1;aspect=fixed;rotation=-180;" vertex="1" parent="_aW_NcULGUtRf_7XObZv-174">
          <mxGeometry x="115" y="59" width="20" height="20" as="geometry" />
        </mxCell>
        <mxCell id="_aW_NcULGUtRf_7XObZv-143" value="" style="ellipse;whiteSpace=wrap;html=1;aspect=fixed;rotation=-180;" vertex="1" parent="_aW_NcULGUtRf_7XObZv-174">
          <mxGeometry x="115" y="29" width="20" height="20" as="geometry" />
        </mxCell>
        <mxCell id="_aW_NcULGUtRf_7XObZv-144" value="" style="ellipse;whiteSpace=wrap;html=1;aspect=fixed;rotation=-180;" vertex="1" parent="_aW_NcULGUtRf_7XObZv-174">
          <mxGeometry x="15" y="149" width="20" height="20" as="geometry" />
        </mxCell>
        <mxCell id="_aW_NcULGUtRf_7XObZv-145" value="" style="ellipse;whiteSpace=wrap;html=1;aspect=fixed;rotation=-180;" vertex="1" parent="_aW_NcULGUtRf_7XObZv-174">
          <mxGeometry x="15" y="119" width="20" height="20" as="geometry" />
        </mxCell>
        <mxCell id="_aW_NcULGUtRf_7XObZv-146" value="" style="ellipse;whiteSpace=wrap;html=1;aspect=fixed;rotation=-180;" vertex="1" parent="_aW_NcULGUtRf_7XObZv-174">
          <mxGeometry x="15" y="85" width="20" height="20" as="geometry" />
        </mxCell>
        <mxCell id="_aW_NcULGUtRf_7XObZv-147" value="" style="ellipse;whiteSpace=wrap;html=1;aspect=fixed;rotation=-180;" vertex="1" parent="_aW_NcULGUtRf_7XObZv-174">
          <mxGeometry x="15" y="49" width="20" height="20" as="geometry" />
        </mxCell>
        <mxCell id="_aW_NcULGUtRf_7XObZv-148" value="" style="endArrow=none;html=1;rounded=0;entryX=0;entryY=0.5;entryDx=0;entryDy=0;exitX=1;exitY=0.5;exitDx=0;exitDy=0;" edge="1" parent="_aW_NcULGUtRf_7XObZv-174" source="_aW_NcULGUtRf_7XObZv-138" target="_aW_NcULGUtRf_7XObZv-144">
          <mxGeometry width="50" height="50" relative="1" as="geometry">
            <mxPoint x="115" y="189" as="sourcePoint" />
            <mxPoint x="65" y="239" as="targetPoint" />
          </mxGeometry>
        </mxCell>
        <mxCell id="_aW_NcULGUtRf_7XObZv-149" value="" style="endArrow=none;html=1;rounded=0;exitX=1;exitY=0.5;exitDx=0;exitDy=0;entryX=0;entryY=0.5;entryDx=0;entryDy=0;" edge="1" parent="_aW_NcULGUtRf_7XObZv-174" source="_aW_NcULGUtRf_7XObZv-138" target="_aW_NcULGUtRf_7XObZv-145">
          <mxGeometry width="50" height="50" relative="1" as="geometry">
            <mxPoint x="85" y="139" as="sourcePoint" />
            <mxPoint x="35" y="189" as="targetPoint" />
          </mxGeometry>
        </mxCell>
        <mxCell id="_aW_NcULGUtRf_7XObZv-150" value="" style="endArrow=none;html=1;rounded=0;exitX=1;exitY=0.5;exitDx=0;exitDy=0;entryX=0;entryY=0.5;entryDx=0;entryDy=0;" edge="1" parent="_aW_NcULGUtRf_7XObZv-174" source="_aW_NcULGUtRf_7XObZv-138" target="_aW_NcULGUtRf_7XObZv-146">
          <mxGeometry width="50" height="50" relative="1" as="geometry">
            <mxPoint x="95" y="139" as="sourcePoint" />
            <mxPoint x="45" y="189" as="targetPoint" />
          </mxGeometry>
        </mxCell>
        <mxCell id="_aW_NcULGUtRf_7XObZv-151" value="" style="endArrow=none;html=1;rounded=0;exitX=1;exitY=0.5;exitDx=0;exitDy=0;entryX=0;entryY=0.5;entryDx=0;entryDy=0;" edge="1" parent="_aW_NcULGUtRf_7XObZv-174" source="_aW_NcULGUtRf_7XObZv-138" target="_aW_NcULGUtRf_7XObZv-147">
          <mxGeometry width="50" height="50" relative="1" as="geometry">
            <mxPoint x="95" y="129" as="sourcePoint" />
            <mxPoint x="45" y="179" as="targetPoint" />
          </mxGeometry>
        </mxCell>
        <mxCell id="_aW_NcULGUtRf_7XObZv-152" value="" style="endArrow=none;html=1;rounded=0;exitX=1;exitY=0.5;exitDx=0;exitDy=0;entryX=0;entryY=0.5;entryDx=0;entryDy=0;" edge="1" parent="_aW_NcULGUtRf_7XObZv-174" source="_aW_NcULGUtRf_7XObZv-139" target="_aW_NcULGUtRf_7XObZv-144">
          <mxGeometry width="50" height="50" relative="1" as="geometry">
            <mxPoint x="95" y="129" as="sourcePoint" />
            <mxPoint x="45" y="179" as="targetPoint" />
          </mxGeometry>
        </mxCell>
        <mxCell id="_aW_NcULGUtRf_7XObZv-153" value="" style="endArrow=none;html=1;rounded=0;exitX=1;exitY=0.5;exitDx=0;exitDy=0;entryX=0;entryY=0.5;entryDx=0;entryDy=0;" edge="1" parent="_aW_NcULGUtRf_7XObZv-174" source="_aW_NcULGUtRf_7XObZv-139" target="_aW_NcULGUtRf_7XObZv-145">
          <mxGeometry width="50" height="50" relative="1" as="geometry">
            <mxPoint x="105" y="149" as="sourcePoint" />
            <mxPoint x="25" y="149" as="targetPoint" />
          </mxGeometry>
        </mxCell>
        <mxCell id="_aW_NcULGUtRf_7XObZv-154" value="" style="endArrow=none;html=1;rounded=0;exitX=1;exitY=0.5;exitDx=0;exitDy=0;entryX=0;entryY=0.5;entryDx=0;entryDy=0;" edge="1" parent="_aW_NcULGUtRf_7XObZv-174" source="_aW_NcULGUtRf_7XObZv-139" target="_aW_NcULGUtRf_7XObZv-146">
          <mxGeometry width="50" height="50" relative="1" as="geometry">
            <mxPoint x="95" y="139" as="sourcePoint" />
            <mxPoint x="15" y="139" as="targetPoint" />
          </mxGeometry>
        </mxCell>
        <mxCell id="_aW_NcULGUtRf_7XObZv-155" value="" style="endArrow=none;html=1;rounded=0;exitX=1;exitY=0.5;exitDx=0;exitDy=0;entryX=0;entryY=0.5;entryDx=0;entryDy=0;" edge="1" parent="_aW_NcULGUtRf_7XObZv-174" source="_aW_NcULGUtRf_7XObZv-139" target="_aW_NcULGUtRf_7XObZv-146">
          <mxGeometry width="50" height="50" relative="1" as="geometry">
            <mxPoint x="85" y="129" as="sourcePoint" />
            <mxPoint x="5" y="129" as="targetPoint" />
          </mxGeometry>
        </mxCell>
        <mxCell id="_aW_NcULGUtRf_7XObZv-156" value="" style="endArrow=none;html=1;rounded=0;exitX=1;exitY=0.5;exitDx=0;exitDy=0;entryX=0;entryY=0.5;entryDx=0;entryDy=0;" edge="1" parent="_aW_NcULGUtRf_7XObZv-174" source="_aW_NcULGUtRf_7XObZv-139" target="_aW_NcULGUtRf_7XObZv-147">
          <mxGeometry width="50" height="50" relative="1" as="geometry">
            <mxPoint x="105" y="149" as="sourcePoint" />
            <mxPoint x="25" y="85" as="targetPoint" />
          </mxGeometry>
        </mxCell>
        <mxCell id="_aW_NcULGUtRf_7XObZv-157" value="" style="endArrow=none;html=1;rounded=0;exitX=1;exitY=0.5;exitDx=0;exitDy=0;entryX=0;entryY=0.5;entryDx=0;entryDy=0;" edge="1" parent="_aW_NcULGUtRf_7XObZv-174" source="_aW_NcULGUtRf_7XObZv-140" target="_aW_NcULGUtRf_7XObZv-144">
          <mxGeometry width="50" height="50" relative="1" as="geometry">
            <mxPoint x="115" y="109" as="sourcePoint" />
            <mxPoint x="65" y="159" as="targetPoint" />
          </mxGeometry>
        </mxCell>
        <mxCell id="_aW_NcULGUtRf_7XObZv-158" value="" style="endArrow=none;html=1;rounded=0;exitX=1;exitY=0.5;exitDx=0;exitDy=0;entryX=0;entryY=0.5;entryDx=0;entryDy=0;" edge="1" parent="_aW_NcULGUtRf_7XObZv-174" source="_aW_NcULGUtRf_7XObZv-140" target="_aW_NcULGUtRf_7XObZv-145">
          <mxGeometry width="50" height="50" relative="1" as="geometry">
            <mxPoint x="95" y="139" as="sourcePoint" />
            <mxPoint x="15" y="75" as="targetPoint" />
          </mxGeometry>
        </mxCell>
        <mxCell id="_aW_NcULGUtRf_7XObZv-159" value="" style="endArrow=none;html=1;rounded=0;exitX=1;exitY=0.5;exitDx=0;exitDy=0;entryX=0;entryY=0.5;entryDx=0;entryDy=0;" edge="1" parent="_aW_NcULGUtRf_7XObZv-174" source="_aW_NcULGUtRf_7XObZv-140" target="_aW_NcULGUtRf_7XObZv-144">
          <mxGeometry width="50" height="50" relative="1" as="geometry">
            <mxPoint x="105" y="119" as="sourcePoint" />
            <mxPoint x="25" y="119" as="targetPoint" />
          </mxGeometry>
        </mxCell>
        <mxCell id="_aW_NcULGUtRf_7XObZv-160" value="" style="endArrow=none;html=1;rounded=0;exitX=1;exitY=0.5;exitDx=0;exitDy=0;entryX=0;entryY=0.5;entryDx=0;entryDy=0;" edge="1" parent="_aW_NcULGUtRf_7XObZv-174" source="_aW_NcULGUtRf_7XObZv-140" target="_aW_NcULGUtRf_7XObZv-146">
          <mxGeometry width="50" height="50" relative="1" as="geometry">
            <mxPoint x="105" y="119" as="sourcePoint" />
            <mxPoint x="25" y="149" as="targetPoint" />
          </mxGeometry>
        </mxCell>
        <mxCell id="_aW_NcULGUtRf_7XObZv-161" value="" style="endArrow=none;html=1;rounded=0;exitX=1;exitY=0.5;exitDx=0;exitDy=0;entryX=0;entryY=0.5;entryDx=0;entryDy=0;" edge="1" parent="_aW_NcULGUtRf_7XObZv-174" source="_aW_NcULGUtRf_7XObZv-140" target="_aW_NcULGUtRf_7XObZv-147">
          <mxGeometry width="50" height="50" relative="1" as="geometry">
            <mxPoint x="95" y="109" as="sourcePoint" />
            <mxPoint x="15" y="139" as="targetPoint" />
          </mxGeometry>
        </mxCell>
        <mxCell id="_aW_NcULGUtRf_7XObZv-162" value="" style="endArrow=none;html=1;rounded=0;exitX=1;exitY=0.5;exitDx=0;exitDy=0;entryX=0;entryY=0.5;entryDx=0;entryDy=0;" edge="1" parent="_aW_NcULGUtRf_7XObZv-174" source="_aW_NcULGUtRf_7XObZv-141" target="_aW_NcULGUtRf_7XObZv-147">
          <mxGeometry width="50" height="50" relative="1" as="geometry">
            <mxPoint x="105" y="99" as="sourcePoint" />
            <mxPoint x="25" y="29" as="targetPoint" />
          </mxGeometry>
        </mxCell>
        <mxCell id="_aW_NcULGUtRf_7XObZv-163" value="" style="endArrow=none;html=1;rounded=0;exitX=1;exitY=0.5;exitDx=0;exitDy=0;entryX=0;entryY=0.5;entryDx=0;entryDy=0;" edge="1" parent="_aW_NcULGUtRf_7XObZv-174" source="_aW_NcULGUtRf_7XObZv-141" target="_aW_NcULGUtRf_7XObZv-146">
          <mxGeometry width="50" height="50" relative="1" as="geometry">
            <mxPoint x="95" y="109" as="sourcePoint" />
            <mxPoint x="15" y="39" as="targetPoint" />
          </mxGeometry>
        </mxCell>
        <mxCell id="_aW_NcULGUtRf_7XObZv-164" value="" style="endArrow=none;html=1;rounded=0;exitX=1;exitY=0.5;exitDx=0;exitDy=0;entryX=0;entryY=0.5;entryDx=0;entryDy=0;" edge="1" parent="_aW_NcULGUtRf_7XObZv-174" source="_aW_NcULGUtRf_7XObZv-141" target="_aW_NcULGUtRf_7XObZv-145">
          <mxGeometry width="50" height="50" relative="1" as="geometry">
            <mxPoint x="85" y="99" as="sourcePoint" />
            <mxPoint x="5" y="29" as="targetPoint" />
          </mxGeometry>
        </mxCell>
        <mxCell id="_aW_NcULGUtRf_7XObZv-165" value="" style="endArrow=none;html=1;rounded=0;exitX=1;exitY=0.5;exitDx=0;exitDy=0;entryX=0;entryY=0.5;entryDx=0;entryDy=0;" edge="1" parent="_aW_NcULGUtRf_7XObZv-174" source="_aW_NcULGUtRf_7XObZv-141" target="_aW_NcULGUtRf_7XObZv-144">
          <mxGeometry width="50" height="50" relative="1" as="geometry">
            <mxPoint x="105" y="89" as="sourcePoint" />
            <mxPoint x="25" y="119" as="targetPoint" />
          </mxGeometry>
        </mxCell>
        <mxCell id="_aW_NcULGUtRf_7XObZv-166" value="" style="endArrow=none;html=1;rounded=0;exitX=1;exitY=0.5;exitDx=0;exitDy=0;entryX=0;entryY=0.5;entryDx=0;entryDy=0;" edge="1" parent="_aW_NcULGUtRf_7XObZv-174" source="_aW_NcULGUtRf_7XObZv-142" target="_aW_NcULGUtRf_7XObZv-147">
          <mxGeometry width="50" height="50" relative="1" as="geometry">
            <mxPoint x="105" y="89" as="sourcePoint" />
            <mxPoint x="25" y="49" as="targetPoint" />
          </mxGeometry>
        </mxCell>
        <mxCell id="_aW_NcULGUtRf_7XObZv-167" value="" style="endArrow=none;html=1;rounded=0;exitX=1;exitY=0.5;exitDx=0;exitDy=0;entryX=0;entryY=0.5;entryDx=0;entryDy=0;" edge="1" parent="_aW_NcULGUtRf_7XObZv-174" source="_aW_NcULGUtRf_7XObZv-142" target="_aW_NcULGUtRf_7XObZv-146">
          <mxGeometry width="50" height="50" relative="1" as="geometry">
            <mxPoint x="105" y="59" as="sourcePoint" />
            <mxPoint x="25" y="49" as="targetPoint" />
          </mxGeometry>
        </mxCell>
        <mxCell id="_aW_NcULGUtRf_7XObZv-168" value="" style="endArrow=none;html=1;rounded=0;exitX=1;exitY=0.5;exitDx=0;exitDy=0;entryX=0;entryY=0.5;entryDx=0;entryDy=0;" edge="1" parent="_aW_NcULGUtRf_7XObZv-174" source="_aW_NcULGUtRf_7XObZv-142" target="_aW_NcULGUtRf_7XObZv-145">
          <mxGeometry width="50" height="50" relative="1" as="geometry">
            <mxPoint x="105" y="59" as="sourcePoint" />
            <mxPoint x="25" y="85" as="targetPoint" />
          </mxGeometry>
        </mxCell>
        <mxCell id="_aW_NcULGUtRf_7XObZv-169" value="" style="endArrow=none;html=1;rounded=0;exitX=1;exitY=0.5;exitDx=0;exitDy=0;entryX=0;entryY=0.5;entryDx=0;entryDy=0;" edge="1" parent="_aW_NcULGUtRf_7XObZv-174" source="_aW_NcULGUtRf_7XObZv-142" target="_aW_NcULGUtRf_7XObZv-144">
          <mxGeometry width="50" height="50" relative="1" as="geometry">
            <mxPoint x="105" y="59" as="sourcePoint" />
            <mxPoint x="25" y="119" as="targetPoint" />
          </mxGeometry>
        </mxCell>
        <mxCell id="_aW_NcULGUtRf_7XObZv-170" value="" style="endArrow=none;html=1;rounded=0;exitX=1;exitY=0.5;exitDx=0;exitDy=0;entryX=0;entryY=0.5;entryDx=0;entryDy=0;" edge="1" parent="_aW_NcULGUtRf_7XObZv-174" source="_aW_NcULGUtRf_7XObZv-143" target="_aW_NcULGUtRf_7XObZv-147">
          <mxGeometry width="50" height="50" relative="1" as="geometry">
            <mxPoint x="105" y="59" as="sourcePoint" />
            <mxPoint x="25" y="49" as="targetPoint" />
          </mxGeometry>
        </mxCell>
        <mxCell id="_aW_NcULGUtRf_7XObZv-171" value="" style="endArrow=none;html=1;rounded=0;exitX=1;exitY=0.5;exitDx=0;exitDy=0;entryX=0;entryY=0.5;entryDx=0;entryDy=0;" edge="1" parent="_aW_NcULGUtRf_7XObZv-174" source="_aW_NcULGUtRf_7XObZv-143" target="_aW_NcULGUtRf_7XObZv-146">
          <mxGeometry width="50" height="50" relative="1" as="geometry">
            <mxPoint x="105" y="29" as="sourcePoint" />
            <mxPoint x="25" y="49" as="targetPoint" />
          </mxGeometry>
        </mxCell>
        <mxCell id="_aW_NcULGUtRf_7XObZv-172" value="" style="endArrow=none;html=1;rounded=0;exitX=1;exitY=0.5;exitDx=0;exitDy=0;entryX=0;entryY=0.5;entryDx=0;entryDy=0;" edge="1" parent="_aW_NcULGUtRf_7XObZv-174" source="_aW_NcULGUtRf_7XObZv-143" target="_aW_NcULGUtRf_7XObZv-145">
          <mxGeometry width="50" height="50" relative="1" as="geometry">
            <mxPoint x="105" y="29" as="sourcePoint" />
            <mxPoint x="25" y="85" as="targetPoint" />
          </mxGeometry>
        </mxCell>
        <mxCell id="_aW_NcULGUtRf_7XObZv-173" value="" style="endArrow=none;html=1;rounded=0;exitX=1;exitY=0.5;exitDx=0;exitDy=0;entryX=0;entryY=0.5;entryDx=0;entryDy=0;" edge="1" parent="_aW_NcULGUtRf_7XObZv-174" source="_aW_NcULGUtRf_7XObZv-143" target="_aW_NcULGUtRf_7XObZv-144">
          <mxGeometry width="50" height="50" relative="1" as="geometry">
            <mxPoint x="105" y="29" as="sourcePoint" />
            <mxPoint x="25" y="119" as="targetPoint" />
          </mxGeometry>
        </mxCell>
        <mxCell id="_aW_NcULGUtRf_7XObZv-212" value="" style="group" vertex="1" connectable="0" parent="1">
          <mxGeometry x="415" y="690" width="150" height="220" as="geometry" />
        </mxCell>
        <mxCell id="_aW_NcULGUtRf_7XObZv-175" value="" style="verticalLabelPosition=middle;verticalAlign=middle;html=1;shape=trapezoid;perimeter=trapezoidPerimeter;whiteSpace=wrap;size=0.23;arcSize=10;flipV=1;labelPosition=center;align=center;rotation=-90;fillColor=#dae8fc;strokeColor=#6c8ebf;" vertex="1" parent="_aW_NcULGUtRf_7XObZv-212">
          <mxGeometry x="-35" y="35" width="220" height="150" as="geometry" />
        </mxCell>
        <mxCell id="_aW_NcULGUtRf_7XObZv-176" value="" style="ellipse;whiteSpace=wrap;html=1;aspect=fixed;" vertex="1" parent="_aW_NcULGUtRf_7XObZv-212">
          <mxGeometry x="15" y="25" width="20" height="20" as="geometry" />
        </mxCell>
        <mxCell id="_aW_NcULGUtRf_7XObZv-177" value="" style="ellipse;whiteSpace=wrap;html=1;aspect=fixed;" vertex="1" parent="_aW_NcULGUtRf_7XObZv-212">
          <mxGeometry x="15" y="51" width="20" height="20" as="geometry" />
        </mxCell>
        <mxCell id="_aW_NcULGUtRf_7XObZv-178" value="" style="ellipse;whiteSpace=wrap;html=1;aspect=fixed;" vertex="1" parent="_aW_NcULGUtRf_7XObZv-212">
          <mxGeometry x="15" y="81" width="20" height="20" as="geometry" />
        </mxCell>
        <mxCell id="_aW_NcULGUtRf_7XObZv-179" value="" style="ellipse;whiteSpace=wrap;html=1;aspect=fixed;" vertex="1" parent="_aW_NcULGUtRf_7XObZv-212">
          <mxGeometry x="15" y="111" width="20" height="20" as="geometry" />
        </mxCell>
        <mxCell id="_aW_NcULGUtRf_7XObZv-180" value="" style="ellipse;whiteSpace=wrap;html=1;aspect=fixed;" vertex="1" parent="_aW_NcULGUtRf_7XObZv-212">
          <mxGeometry x="15" y="141" width="20" height="20" as="geometry" />
        </mxCell>
        <mxCell id="_aW_NcULGUtRf_7XObZv-181" value="" style="ellipse;whiteSpace=wrap;html=1;aspect=fixed;" vertex="1" parent="_aW_NcULGUtRf_7XObZv-212">
          <mxGeometry x="15" y="171" width="20" height="20" as="geometry" />
        </mxCell>
        <mxCell id="_aW_NcULGUtRf_7XObZv-182" value="" style="ellipse;whiteSpace=wrap;html=1;aspect=fixed;" vertex="1" parent="_aW_NcULGUtRf_7XObZv-212">
          <mxGeometry x="115" y="51" width="20" height="20" as="geometry" />
        </mxCell>
        <mxCell id="_aW_NcULGUtRf_7XObZv-183" value="" style="ellipse;whiteSpace=wrap;html=1;aspect=fixed;" vertex="1" parent="_aW_NcULGUtRf_7XObZv-212">
          <mxGeometry x="115" y="81" width="20" height="20" as="geometry" />
        </mxCell>
        <mxCell id="_aW_NcULGUtRf_7XObZv-184" value="" style="ellipse;whiteSpace=wrap;html=1;aspect=fixed;" vertex="1" parent="_aW_NcULGUtRf_7XObZv-212">
          <mxGeometry x="115" y="115" width="20" height="20" as="geometry" />
        </mxCell>
        <mxCell id="_aW_NcULGUtRf_7XObZv-185" value="" style="ellipse;whiteSpace=wrap;html=1;aspect=fixed;" vertex="1" parent="_aW_NcULGUtRf_7XObZv-212">
          <mxGeometry x="115" y="151" width="20" height="20" as="geometry" />
        </mxCell>
        <mxCell id="_aW_NcULGUtRf_7XObZv-186" value="" style="endArrow=none;html=1;rounded=0;entryX=0;entryY=0.5;entryDx=0;entryDy=0;exitX=1;exitY=0.5;exitDx=0;exitDy=0;" edge="1" parent="_aW_NcULGUtRf_7XObZv-212" source="_aW_NcULGUtRf_7XObZv-176" target="_aW_NcULGUtRf_7XObZv-182">
          <mxGeometry width="50" height="50" relative="1" as="geometry">
            <mxPoint x="35" y="31" as="sourcePoint" />
            <mxPoint x="85" y="-19" as="targetPoint" />
          </mxGeometry>
        </mxCell>
        <mxCell id="_aW_NcULGUtRf_7XObZv-187" value="" style="endArrow=none;html=1;rounded=0;exitX=1;exitY=0.5;exitDx=0;exitDy=0;entryX=0;entryY=0.5;entryDx=0;entryDy=0;" edge="1" parent="_aW_NcULGUtRf_7XObZv-212" source="_aW_NcULGUtRf_7XObZv-176" target="_aW_NcULGUtRf_7XObZv-183">
          <mxGeometry width="50" height="50" relative="1" as="geometry">
            <mxPoint x="65" y="81" as="sourcePoint" />
            <mxPoint x="115" y="31" as="targetPoint" />
          </mxGeometry>
        </mxCell>
        <mxCell id="_aW_NcULGUtRf_7XObZv-188" value="" style="endArrow=none;html=1;rounded=0;exitX=1;exitY=0.5;exitDx=0;exitDy=0;entryX=0;entryY=0.5;entryDx=0;entryDy=0;" edge="1" parent="_aW_NcULGUtRf_7XObZv-212" source="_aW_NcULGUtRf_7XObZv-176" target="_aW_NcULGUtRf_7XObZv-184">
          <mxGeometry width="50" height="50" relative="1" as="geometry">
            <mxPoint x="55" y="81" as="sourcePoint" />
            <mxPoint x="105" y="31" as="targetPoint" />
          </mxGeometry>
        </mxCell>
        <mxCell id="_aW_NcULGUtRf_7XObZv-189" value="" style="endArrow=none;html=1;rounded=0;exitX=1;exitY=0.5;exitDx=0;exitDy=0;entryX=0;entryY=0.5;entryDx=0;entryDy=0;" edge="1" parent="_aW_NcULGUtRf_7XObZv-212" source="_aW_NcULGUtRf_7XObZv-176" target="_aW_NcULGUtRf_7XObZv-185">
          <mxGeometry width="50" height="50" relative="1" as="geometry">
            <mxPoint x="55" y="91" as="sourcePoint" />
            <mxPoint x="105" y="41" as="targetPoint" />
          </mxGeometry>
        </mxCell>
        <mxCell id="_aW_NcULGUtRf_7XObZv-190" value="" style="endArrow=none;html=1;rounded=0;exitX=1;exitY=0.5;exitDx=0;exitDy=0;entryX=0;entryY=0.5;entryDx=0;entryDy=0;" edge="1" parent="_aW_NcULGUtRf_7XObZv-212" source="_aW_NcULGUtRf_7XObZv-177" target="_aW_NcULGUtRf_7XObZv-182">
          <mxGeometry width="50" height="50" relative="1" as="geometry">
            <mxPoint x="55" y="91" as="sourcePoint" />
            <mxPoint x="105" y="41" as="targetPoint" />
          </mxGeometry>
        </mxCell>
        <mxCell id="_aW_NcULGUtRf_7XObZv-191" value="" style="endArrow=none;html=1;rounded=0;exitX=1;exitY=0.5;exitDx=0;exitDy=0;entryX=0;entryY=0.5;entryDx=0;entryDy=0;" edge="1" parent="_aW_NcULGUtRf_7XObZv-212" source="_aW_NcULGUtRf_7XObZv-177" target="_aW_NcULGUtRf_7XObZv-183">
          <mxGeometry width="50" height="50" relative="1" as="geometry">
            <mxPoint x="45" y="71" as="sourcePoint" />
            <mxPoint x="125" y="71" as="targetPoint" />
          </mxGeometry>
        </mxCell>
        <mxCell id="_aW_NcULGUtRf_7XObZv-192" value="" style="endArrow=none;html=1;rounded=0;exitX=1;exitY=0.5;exitDx=0;exitDy=0;entryX=0;entryY=0.5;entryDx=0;entryDy=0;" edge="1" parent="_aW_NcULGUtRf_7XObZv-212" source="_aW_NcULGUtRf_7XObZv-177" target="_aW_NcULGUtRf_7XObZv-184">
          <mxGeometry width="50" height="50" relative="1" as="geometry">
            <mxPoint x="55" y="81" as="sourcePoint" />
            <mxPoint x="135" y="81" as="targetPoint" />
          </mxGeometry>
        </mxCell>
        <mxCell id="_aW_NcULGUtRf_7XObZv-193" value="" style="endArrow=none;html=1;rounded=0;exitX=1;exitY=0.5;exitDx=0;exitDy=0;entryX=0;entryY=0.5;entryDx=0;entryDy=0;" edge="1" parent="_aW_NcULGUtRf_7XObZv-212" source="_aW_NcULGUtRf_7XObZv-177" target="_aW_NcULGUtRf_7XObZv-184">
          <mxGeometry width="50" height="50" relative="1" as="geometry">
            <mxPoint x="65" y="91" as="sourcePoint" />
            <mxPoint x="145" y="91" as="targetPoint" />
          </mxGeometry>
        </mxCell>
        <mxCell id="_aW_NcULGUtRf_7XObZv-194" value="" style="endArrow=none;html=1;rounded=0;exitX=1;exitY=0.5;exitDx=0;exitDy=0;entryX=0;entryY=0.5;entryDx=0;entryDy=0;" edge="1" parent="_aW_NcULGUtRf_7XObZv-212" source="_aW_NcULGUtRf_7XObZv-177" target="_aW_NcULGUtRf_7XObZv-185">
          <mxGeometry width="50" height="50" relative="1" as="geometry">
            <mxPoint x="45" y="71" as="sourcePoint" />
            <mxPoint x="125" y="135" as="targetPoint" />
          </mxGeometry>
        </mxCell>
        <mxCell id="_aW_NcULGUtRf_7XObZv-195" value="" style="endArrow=none;html=1;rounded=0;exitX=1;exitY=0.5;exitDx=0;exitDy=0;entryX=0;entryY=0.5;entryDx=0;entryDy=0;" edge="1" parent="_aW_NcULGUtRf_7XObZv-212" source="_aW_NcULGUtRf_7XObZv-178" target="_aW_NcULGUtRf_7XObZv-182">
          <mxGeometry width="50" height="50" relative="1" as="geometry">
            <mxPoint x="35" y="111" as="sourcePoint" />
            <mxPoint x="85" y="61" as="targetPoint" />
          </mxGeometry>
        </mxCell>
        <mxCell id="_aW_NcULGUtRf_7XObZv-196" value="" style="endArrow=none;html=1;rounded=0;exitX=1;exitY=0.5;exitDx=0;exitDy=0;entryX=0;entryY=0.5;entryDx=0;entryDy=0;" edge="1" parent="_aW_NcULGUtRf_7XObZv-212" source="_aW_NcULGUtRf_7XObZv-178" target="_aW_NcULGUtRf_7XObZv-183">
          <mxGeometry width="50" height="50" relative="1" as="geometry">
            <mxPoint x="55" y="81" as="sourcePoint" />
            <mxPoint x="135" y="145" as="targetPoint" />
          </mxGeometry>
        </mxCell>
        <mxCell id="_aW_NcULGUtRf_7XObZv-197" value="" style="endArrow=none;html=1;rounded=0;exitX=1;exitY=0.5;exitDx=0;exitDy=0;entryX=0;entryY=0.5;entryDx=0;entryDy=0;" edge="1" parent="_aW_NcULGUtRf_7XObZv-212" source="_aW_NcULGUtRf_7XObZv-178" target="_aW_NcULGUtRf_7XObZv-182">
          <mxGeometry width="50" height="50" relative="1" as="geometry">
            <mxPoint x="45" y="101" as="sourcePoint" />
            <mxPoint x="125" y="101" as="targetPoint" />
          </mxGeometry>
        </mxCell>
        <mxCell id="_aW_NcULGUtRf_7XObZv-198" value="" style="endArrow=none;html=1;rounded=0;exitX=1;exitY=0.5;exitDx=0;exitDy=0;entryX=0;entryY=0.5;entryDx=0;entryDy=0;" edge="1" parent="_aW_NcULGUtRf_7XObZv-212" source="_aW_NcULGUtRf_7XObZv-178" target="_aW_NcULGUtRf_7XObZv-184">
          <mxGeometry width="50" height="50" relative="1" as="geometry">
            <mxPoint x="45" y="101" as="sourcePoint" />
            <mxPoint x="125" y="71" as="targetPoint" />
          </mxGeometry>
        </mxCell>
        <mxCell id="_aW_NcULGUtRf_7XObZv-199" value="" style="endArrow=none;html=1;rounded=0;exitX=1;exitY=0.5;exitDx=0;exitDy=0;entryX=0;entryY=0.5;entryDx=0;entryDy=0;" edge="1" parent="_aW_NcULGUtRf_7XObZv-212" source="_aW_NcULGUtRf_7XObZv-178" target="_aW_NcULGUtRf_7XObZv-185">
          <mxGeometry width="50" height="50" relative="1" as="geometry">
            <mxPoint x="55" y="111" as="sourcePoint" />
            <mxPoint x="135" y="81" as="targetPoint" />
          </mxGeometry>
        </mxCell>
        <mxCell id="_aW_NcULGUtRf_7XObZv-200" value="" style="endArrow=none;html=1;rounded=0;exitX=1;exitY=0.5;exitDx=0;exitDy=0;entryX=0;entryY=0.5;entryDx=0;entryDy=0;" edge="1" parent="_aW_NcULGUtRf_7XObZv-212" source="_aW_NcULGUtRf_7XObZv-179" target="_aW_NcULGUtRf_7XObZv-185">
          <mxGeometry width="50" height="50" relative="1" as="geometry">
            <mxPoint x="45" y="121" as="sourcePoint" />
            <mxPoint x="125" y="191" as="targetPoint" />
          </mxGeometry>
        </mxCell>
        <mxCell id="_aW_NcULGUtRf_7XObZv-201" value="" style="endArrow=none;html=1;rounded=0;exitX=1;exitY=0.5;exitDx=0;exitDy=0;entryX=0;entryY=0.5;entryDx=0;entryDy=0;" edge="1" parent="_aW_NcULGUtRf_7XObZv-212" source="_aW_NcULGUtRf_7XObZv-179" target="_aW_NcULGUtRf_7XObZv-184">
          <mxGeometry width="50" height="50" relative="1" as="geometry">
            <mxPoint x="55" y="111" as="sourcePoint" />
            <mxPoint x="135" y="181" as="targetPoint" />
          </mxGeometry>
        </mxCell>
        <mxCell id="_aW_NcULGUtRf_7XObZv-202" value="" style="endArrow=none;html=1;rounded=0;exitX=1;exitY=0.5;exitDx=0;exitDy=0;entryX=0;entryY=0.5;entryDx=0;entryDy=0;" edge="1" parent="_aW_NcULGUtRf_7XObZv-212" source="_aW_NcULGUtRf_7XObZv-179" target="_aW_NcULGUtRf_7XObZv-183">
          <mxGeometry width="50" height="50" relative="1" as="geometry">
            <mxPoint x="65" y="121" as="sourcePoint" />
            <mxPoint x="145" y="191" as="targetPoint" />
          </mxGeometry>
        </mxCell>
        <mxCell id="_aW_NcULGUtRf_7XObZv-203" value="" style="endArrow=none;html=1;rounded=0;exitX=1;exitY=0.5;exitDx=0;exitDy=0;entryX=0;entryY=0.5;entryDx=0;entryDy=0;" edge="1" parent="_aW_NcULGUtRf_7XObZv-212" source="_aW_NcULGUtRf_7XObZv-179" target="_aW_NcULGUtRf_7XObZv-182">
          <mxGeometry width="50" height="50" relative="1" as="geometry">
            <mxPoint x="45" y="131" as="sourcePoint" />
            <mxPoint x="125" y="101" as="targetPoint" />
          </mxGeometry>
        </mxCell>
        <mxCell id="_aW_NcULGUtRf_7XObZv-204" value="" style="endArrow=none;html=1;rounded=0;exitX=1;exitY=0.5;exitDx=0;exitDy=0;entryX=0;entryY=0.5;entryDx=0;entryDy=0;" edge="1" parent="_aW_NcULGUtRf_7XObZv-212" source="_aW_NcULGUtRf_7XObZv-180" target="_aW_NcULGUtRf_7XObZv-185">
          <mxGeometry width="50" height="50" relative="1" as="geometry">
            <mxPoint x="45" y="131" as="sourcePoint" />
            <mxPoint x="125" y="171" as="targetPoint" />
          </mxGeometry>
        </mxCell>
        <mxCell id="_aW_NcULGUtRf_7XObZv-205" value="" style="endArrow=none;html=1;rounded=0;exitX=1;exitY=0.5;exitDx=0;exitDy=0;entryX=0;entryY=0.5;entryDx=0;entryDy=0;" edge="1" parent="_aW_NcULGUtRf_7XObZv-212" source="_aW_NcULGUtRf_7XObZv-180" target="_aW_NcULGUtRf_7XObZv-184">
          <mxGeometry width="50" height="50" relative="1" as="geometry">
            <mxPoint x="45" y="161" as="sourcePoint" />
            <mxPoint x="125" y="171" as="targetPoint" />
          </mxGeometry>
        </mxCell>
        <mxCell id="_aW_NcULGUtRf_7XObZv-206" value="" style="endArrow=none;html=1;rounded=0;exitX=1;exitY=0.5;exitDx=0;exitDy=0;entryX=0;entryY=0.5;entryDx=0;entryDy=0;" edge="1" parent="_aW_NcULGUtRf_7XObZv-212" source="_aW_NcULGUtRf_7XObZv-180" target="_aW_NcULGUtRf_7XObZv-183">
          <mxGeometry width="50" height="50" relative="1" as="geometry">
            <mxPoint x="45" y="161" as="sourcePoint" />
            <mxPoint x="125" y="135" as="targetPoint" />
          </mxGeometry>
        </mxCell>
        <mxCell id="_aW_NcULGUtRf_7XObZv-207" value="" style="endArrow=none;html=1;rounded=0;exitX=1;exitY=0.5;exitDx=0;exitDy=0;entryX=0;entryY=0.5;entryDx=0;entryDy=0;" edge="1" parent="_aW_NcULGUtRf_7XObZv-212" source="_aW_NcULGUtRf_7XObZv-180" target="_aW_NcULGUtRf_7XObZv-182">
          <mxGeometry width="50" height="50" relative="1" as="geometry">
            <mxPoint x="45" y="161" as="sourcePoint" />
            <mxPoint x="125" y="101" as="targetPoint" />
          </mxGeometry>
        </mxCell>
        <mxCell id="_aW_NcULGUtRf_7XObZv-208" value="" style="endArrow=none;html=1;rounded=0;exitX=1;exitY=0.5;exitDx=0;exitDy=0;entryX=0;entryY=0.5;entryDx=0;entryDy=0;" edge="1" parent="_aW_NcULGUtRf_7XObZv-212" source="_aW_NcULGUtRf_7XObZv-181" target="_aW_NcULGUtRf_7XObZv-185">
          <mxGeometry width="50" height="50" relative="1" as="geometry">
            <mxPoint x="45" y="161" as="sourcePoint" />
            <mxPoint x="125" y="171" as="targetPoint" />
          </mxGeometry>
        </mxCell>
        <mxCell id="_aW_NcULGUtRf_7XObZv-209" value="" style="endArrow=none;html=1;rounded=0;exitX=1;exitY=0.5;exitDx=0;exitDy=0;entryX=0;entryY=0.5;entryDx=0;entryDy=0;" edge="1" parent="_aW_NcULGUtRf_7XObZv-212" source="_aW_NcULGUtRf_7XObZv-181" target="_aW_NcULGUtRf_7XObZv-184">
          <mxGeometry width="50" height="50" relative="1" as="geometry">
            <mxPoint x="45" y="191" as="sourcePoint" />
            <mxPoint x="125" y="171" as="targetPoint" />
          </mxGeometry>
        </mxCell>
        <mxCell id="_aW_NcULGUtRf_7XObZv-210" value="" style="endArrow=none;html=1;rounded=0;exitX=1;exitY=0.5;exitDx=0;exitDy=0;entryX=0;entryY=0.5;entryDx=0;entryDy=0;" edge="1" parent="_aW_NcULGUtRf_7XObZv-212" source="_aW_NcULGUtRf_7XObZv-181" target="_aW_NcULGUtRf_7XObZv-183">
          <mxGeometry width="50" height="50" relative="1" as="geometry">
            <mxPoint x="45" y="191" as="sourcePoint" />
            <mxPoint x="125" y="135" as="targetPoint" />
          </mxGeometry>
        </mxCell>
        <mxCell id="_aW_NcULGUtRf_7XObZv-211" value="" style="endArrow=none;html=1;rounded=0;exitX=1;exitY=0.5;exitDx=0;exitDy=0;entryX=0;entryY=0.5;entryDx=0;entryDy=0;" edge="1" parent="_aW_NcULGUtRf_7XObZv-212" source="_aW_NcULGUtRf_7XObZv-181" target="_aW_NcULGUtRf_7XObZv-182">
          <mxGeometry width="50" height="50" relative="1" as="geometry">
            <mxPoint x="45" y="191" as="sourcePoint" />
            <mxPoint x="125" y="101" as="targetPoint" />
          </mxGeometry>
        </mxCell>
        <mxCell id="_aW_NcULGUtRf_7XObZv-213" value="" style="group;direction=west;rotation=-180;" vertex="1" connectable="0" parent="1">
          <mxGeometry x="415" y="970" width="150" height="220" as="geometry" />
        </mxCell>
        <mxCell id="_aW_NcULGUtRf_7XObZv-214" value="" style="verticalLabelPosition=middle;verticalAlign=middle;html=1;shape=trapezoid;perimeter=trapezoidPerimeter;whiteSpace=wrap;size=0.23;arcSize=10;flipV=1;labelPosition=center;align=center;rotation=-270;fillColor=#e1d5e7;strokeColor=#9673a6;" vertex="1" parent="_aW_NcULGUtRf_7XObZv-213">
          <mxGeometry x="-35" y="36" width="220" height="150" as="geometry" />
        </mxCell>
        <mxCell id="_aW_NcULGUtRf_7XObZv-215" value="" style="ellipse;whiteSpace=wrap;html=1;aspect=fixed;rotation=-180;" vertex="1" parent="_aW_NcULGUtRf_7XObZv-213">
          <mxGeometry x="115" y="175" width="20" height="20" as="geometry" />
        </mxCell>
        <mxCell id="_aW_NcULGUtRf_7XObZv-216" value="" style="ellipse;whiteSpace=wrap;html=1;aspect=fixed;rotation=-180;" vertex="1" parent="_aW_NcULGUtRf_7XObZv-213">
          <mxGeometry x="115" y="149" width="20" height="20" as="geometry" />
        </mxCell>
        <mxCell id="_aW_NcULGUtRf_7XObZv-217" value="" style="ellipse;whiteSpace=wrap;html=1;aspect=fixed;rotation=-180;" vertex="1" parent="_aW_NcULGUtRf_7XObZv-213">
          <mxGeometry x="115" y="119" width="20" height="20" as="geometry" />
        </mxCell>
        <mxCell id="_aW_NcULGUtRf_7XObZv-218" value="" style="ellipse;whiteSpace=wrap;html=1;aspect=fixed;rotation=-180;" vertex="1" parent="_aW_NcULGUtRf_7XObZv-213">
          <mxGeometry x="115" y="89" width="20" height="20" as="geometry" />
        </mxCell>
        <mxCell id="_aW_NcULGUtRf_7XObZv-219" value="" style="ellipse;whiteSpace=wrap;html=1;aspect=fixed;rotation=-180;" vertex="1" parent="_aW_NcULGUtRf_7XObZv-213">
          <mxGeometry x="115" y="59" width="20" height="20" as="geometry" />
        </mxCell>
        <mxCell id="_aW_NcULGUtRf_7XObZv-220" value="" style="ellipse;whiteSpace=wrap;html=1;aspect=fixed;rotation=-180;" vertex="1" parent="_aW_NcULGUtRf_7XObZv-213">
          <mxGeometry x="115" y="29" width="20" height="20" as="geometry" />
        </mxCell>
        <mxCell id="_aW_NcULGUtRf_7XObZv-221" value="" style="ellipse;whiteSpace=wrap;html=1;aspect=fixed;rotation=-180;" vertex="1" parent="_aW_NcULGUtRf_7XObZv-213">
          <mxGeometry x="15" y="149" width="20" height="20" as="geometry" />
        </mxCell>
        <mxCell id="_aW_NcULGUtRf_7XObZv-222" value="" style="ellipse;whiteSpace=wrap;html=1;aspect=fixed;rotation=-180;" vertex="1" parent="_aW_NcULGUtRf_7XObZv-213">
          <mxGeometry x="15" y="119" width="20" height="20" as="geometry" />
        </mxCell>
        <mxCell id="_aW_NcULGUtRf_7XObZv-223" value="" style="ellipse;whiteSpace=wrap;html=1;aspect=fixed;rotation=-180;" vertex="1" parent="_aW_NcULGUtRf_7XObZv-213">
          <mxGeometry x="15" y="85" width="20" height="20" as="geometry" />
        </mxCell>
        <mxCell id="_aW_NcULGUtRf_7XObZv-224" value="" style="ellipse;whiteSpace=wrap;html=1;aspect=fixed;rotation=-180;" vertex="1" parent="_aW_NcULGUtRf_7XObZv-213">
          <mxGeometry x="15" y="49" width="20" height="20" as="geometry" />
        </mxCell>
        <mxCell id="_aW_NcULGUtRf_7XObZv-225" value="" style="endArrow=none;html=1;rounded=0;entryX=0;entryY=0.5;entryDx=0;entryDy=0;exitX=1;exitY=0.5;exitDx=0;exitDy=0;" edge="1" parent="_aW_NcULGUtRf_7XObZv-213" source="_aW_NcULGUtRf_7XObZv-215" target="_aW_NcULGUtRf_7XObZv-221">
          <mxGeometry width="50" height="50" relative="1" as="geometry">
            <mxPoint x="115" y="189" as="sourcePoint" />
            <mxPoint x="65" y="239" as="targetPoint" />
          </mxGeometry>
        </mxCell>
        <mxCell id="_aW_NcULGUtRf_7XObZv-226" value="" style="endArrow=none;html=1;rounded=0;exitX=1;exitY=0.5;exitDx=0;exitDy=0;entryX=0;entryY=0.5;entryDx=0;entryDy=0;" edge="1" parent="_aW_NcULGUtRf_7XObZv-213" source="_aW_NcULGUtRf_7XObZv-215" target="_aW_NcULGUtRf_7XObZv-222">
          <mxGeometry width="50" height="50" relative="1" as="geometry">
            <mxPoint x="85" y="139" as="sourcePoint" />
            <mxPoint x="35" y="189" as="targetPoint" />
          </mxGeometry>
        </mxCell>
        <mxCell id="_aW_NcULGUtRf_7XObZv-227" value="" style="endArrow=none;html=1;rounded=0;exitX=1;exitY=0.5;exitDx=0;exitDy=0;entryX=0;entryY=0.5;entryDx=0;entryDy=0;" edge="1" parent="_aW_NcULGUtRf_7XObZv-213" source="_aW_NcULGUtRf_7XObZv-215" target="_aW_NcULGUtRf_7XObZv-223">
          <mxGeometry width="50" height="50" relative="1" as="geometry">
            <mxPoint x="95" y="139" as="sourcePoint" />
            <mxPoint x="45" y="189" as="targetPoint" />
          </mxGeometry>
        </mxCell>
        <mxCell id="_aW_NcULGUtRf_7XObZv-228" value="" style="endArrow=none;html=1;rounded=0;exitX=1;exitY=0.5;exitDx=0;exitDy=0;entryX=0;entryY=0.5;entryDx=0;entryDy=0;" edge="1" parent="_aW_NcULGUtRf_7XObZv-213" source="_aW_NcULGUtRf_7XObZv-215" target="_aW_NcULGUtRf_7XObZv-224">
          <mxGeometry width="50" height="50" relative="1" as="geometry">
            <mxPoint x="95" y="129" as="sourcePoint" />
            <mxPoint x="45" y="179" as="targetPoint" />
          </mxGeometry>
        </mxCell>
        <mxCell id="_aW_NcULGUtRf_7XObZv-229" value="" style="endArrow=none;html=1;rounded=0;exitX=1;exitY=0.5;exitDx=0;exitDy=0;entryX=0;entryY=0.5;entryDx=0;entryDy=0;" edge="1" parent="_aW_NcULGUtRf_7XObZv-213" source="_aW_NcULGUtRf_7XObZv-216" target="_aW_NcULGUtRf_7XObZv-221">
          <mxGeometry width="50" height="50" relative="1" as="geometry">
            <mxPoint x="95" y="129" as="sourcePoint" />
            <mxPoint x="45" y="179" as="targetPoint" />
          </mxGeometry>
        </mxCell>
        <mxCell id="_aW_NcULGUtRf_7XObZv-230" value="" style="endArrow=none;html=1;rounded=0;exitX=1;exitY=0.5;exitDx=0;exitDy=0;entryX=0;entryY=0.5;entryDx=0;entryDy=0;" edge="1" parent="_aW_NcULGUtRf_7XObZv-213" source="_aW_NcULGUtRf_7XObZv-216" target="_aW_NcULGUtRf_7XObZv-222">
          <mxGeometry width="50" height="50" relative="1" as="geometry">
            <mxPoint x="105" y="149" as="sourcePoint" />
            <mxPoint x="25" y="149" as="targetPoint" />
          </mxGeometry>
        </mxCell>
        <mxCell id="_aW_NcULGUtRf_7XObZv-231" value="" style="endArrow=none;html=1;rounded=0;exitX=1;exitY=0.5;exitDx=0;exitDy=0;entryX=0;entryY=0.5;entryDx=0;entryDy=0;" edge="1" parent="_aW_NcULGUtRf_7XObZv-213" source="_aW_NcULGUtRf_7XObZv-216" target="_aW_NcULGUtRf_7XObZv-223">
          <mxGeometry width="50" height="50" relative="1" as="geometry">
            <mxPoint x="95" y="139" as="sourcePoint" />
            <mxPoint x="15" y="139" as="targetPoint" />
          </mxGeometry>
        </mxCell>
        <mxCell id="_aW_NcULGUtRf_7XObZv-232" value="" style="endArrow=none;html=1;rounded=0;exitX=1;exitY=0.5;exitDx=0;exitDy=0;entryX=0;entryY=0.5;entryDx=0;entryDy=0;" edge="1" parent="_aW_NcULGUtRf_7XObZv-213" source="_aW_NcULGUtRf_7XObZv-216" target="_aW_NcULGUtRf_7XObZv-223">
          <mxGeometry width="50" height="50" relative="1" as="geometry">
            <mxPoint x="85" y="129" as="sourcePoint" />
            <mxPoint x="5" y="129" as="targetPoint" />
          </mxGeometry>
        </mxCell>
        <mxCell id="_aW_NcULGUtRf_7XObZv-233" value="" style="endArrow=none;html=1;rounded=0;exitX=1;exitY=0.5;exitDx=0;exitDy=0;entryX=0;entryY=0.5;entryDx=0;entryDy=0;" edge="1" parent="_aW_NcULGUtRf_7XObZv-213" source="_aW_NcULGUtRf_7XObZv-216" target="_aW_NcULGUtRf_7XObZv-224">
          <mxGeometry width="50" height="50" relative="1" as="geometry">
            <mxPoint x="105" y="149" as="sourcePoint" />
            <mxPoint x="25" y="85" as="targetPoint" />
          </mxGeometry>
        </mxCell>
        <mxCell id="_aW_NcULGUtRf_7XObZv-234" value="" style="endArrow=none;html=1;rounded=0;exitX=1;exitY=0.5;exitDx=0;exitDy=0;entryX=0;entryY=0.5;entryDx=0;entryDy=0;" edge="1" parent="_aW_NcULGUtRf_7XObZv-213" source="_aW_NcULGUtRf_7XObZv-217" target="_aW_NcULGUtRf_7XObZv-221">
          <mxGeometry width="50" height="50" relative="1" as="geometry">
            <mxPoint x="115" y="109" as="sourcePoint" />
            <mxPoint x="65" y="159" as="targetPoint" />
          </mxGeometry>
        </mxCell>
        <mxCell id="_aW_NcULGUtRf_7XObZv-235" value="" style="endArrow=none;html=1;rounded=0;exitX=1;exitY=0.5;exitDx=0;exitDy=0;entryX=0;entryY=0.5;entryDx=0;entryDy=0;" edge="1" parent="_aW_NcULGUtRf_7XObZv-213" source="_aW_NcULGUtRf_7XObZv-217" target="_aW_NcULGUtRf_7XObZv-222">
          <mxGeometry width="50" height="50" relative="1" as="geometry">
            <mxPoint x="95" y="139" as="sourcePoint" />
            <mxPoint x="15" y="75" as="targetPoint" />
          </mxGeometry>
        </mxCell>
        <mxCell id="_aW_NcULGUtRf_7XObZv-236" value="" style="endArrow=none;html=1;rounded=0;exitX=1;exitY=0.5;exitDx=0;exitDy=0;entryX=0;entryY=0.5;entryDx=0;entryDy=0;" edge="1" parent="_aW_NcULGUtRf_7XObZv-213" source="_aW_NcULGUtRf_7XObZv-217" target="_aW_NcULGUtRf_7XObZv-221">
          <mxGeometry width="50" height="50" relative="1" as="geometry">
            <mxPoint x="105" y="119" as="sourcePoint" />
            <mxPoint x="25" y="119" as="targetPoint" />
          </mxGeometry>
        </mxCell>
        <mxCell id="_aW_NcULGUtRf_7XObZv-237" value="" style="endArrow=none;html=1;rounded=0;exitX=1;exitY=0.5;exitDx=0;exitDy=0;entryX=0;entryY=0.5;entryDx=0;entryDy=0;" edge="1" parent="_aW_NcULGUtRf_7XObZv-213" source="_aW_NcULGUtRf_7XObZv-217" target="_aW_NcULGUtRf_7XObZv-223">
          <mxGeometry width="50" height="50" relative="1" as="geometry">
            <mxPoint x="105" y="119" as="sourcePoint" />
            <mxPoint x="25" y="149" as="targetPoint" />
          </mxGeometry>
        </mxCell>
        <mxCell id="_aW_NcULGUtRf_7XObZv-238" value="" style="endArrow=none;html=1;rounded=0;exitX=1;exitY=0.5;exitDx=0;exitDy=0;entryX=0;entryY=0.5;entryDx=0;entryDy=0;" edge="1" parent="_aW_NcULGUtRf_7XObZv-213" source="_aW_NcULGUtRf_7XObZv-217" target="_aW_NcULGUtRf_7XObZv-224">
          <mxGeometry width="50" height="50" relative="1" as="geometry">
            <mxPoint x="95" y="109" as="sourcePoint" />
            <mxPoint x="15" y="139" as="targetPoint" />
          </mxGeometry>
        </mxCell>
        <mxCell id="_aW_NcULGUtRf_7XObZv-239" value="" style="endArrow=none;html=1;rounded=0;exitX=1;exitY=0.5;exitDx=0;exitDy=0;entryX=0;entryY=0.5;entryDx=0;entryDy=0;" edge="1" parent="_aW_NcULGUtRf_7XObZv-213" source="_aW_NcULGUtRf_7XObZv-218" target="_aW_NcULGUtRf_7XObZv-224">
          <mxGeometry width="50" height="50" relative="1" as="geometry">
            <mxPoint x="105" y="99" as="sourcePoint" />
            <mxPoint x="25" y="29" as="targetPoint" />
          </mxGeometry>
        </mxCell>
        <mxCell id="_aW_NcULGUtRf_7XObZv-240" value="" style="endArrow=none;html=1;rounded=0;exitX=1;exitY=0.5;exitDx=0;exitDy=0;entryX=0;entryY=0.5;entryDx=0;entryDy=0;" edge="1" parent="_aW_NcULGUtRf_7XObZv-213" source="_aW_NcULGUtRf_7XObZv-218" target="_aW_NcULGUtRf_7XObZv-223">
          <mxGeometry width="50" height="50" relative="1" as="geometry">
            <mxPoint x="95" y="109" as="sourcePoint" />
            <mxPoint x="15" y="39" as="targetPoint" />
          </mxGeometry>
        </mxCell>
        <mxCell id="_aW_NcULGUtRf_7XObZv-241" value="" style="endArrow=none;html=1;rounded=0;exitX=1;exitY=0.5;exitDx=0;exitDy=0;entryX=0;entryY=0.5;entryDx=0;entryDy=0;" edge="1" parent="_aW_NcULGUtRf_7XObZv-213" source="_aW_NcULGUtRf_7XObZv-218" target="_aW_NcULGUtRf_7XObZv-222">
          <mxGeometry width="50" height="50" relative="1" as="geometry">
            <mxPoint x="85" y="99" as="sourcePoint" />
            <mxPoint x="5" y="29" as="targetPoint" />
          </mxGeometry>
        </mxCell>
        <mxCell id="_aW_NcULGUtRf_7XObZv-242" value="" style="endArrow=none;html=1;rounded=0;exitX=1;exitY=0.5;exitDx=0;exitDy=0;entryX=0;entryY=0.5;entryDx=0;entryDy=0;" edge="1" parent="_aW_NcULGUtRf_7XObZv-213" source="_aW_NcULGUtRf_7XObZv-218" target="_aW_NcULGUtRf_7XObZv-221">
          <mxGeometry width="50" height="50" relative="1" as="geometry">
            <mxPoint x="105" y="89" as="sourcePoint" />
            <mxPoint x="25" y="119" as="targetPoint" />
          </mxGeometry>
        </mxCell>
        <mxCell id="_aW_NcULGUtRf_7XObZv-243" value="" style="endArrow=none;html=1;rounded=0;exitX=1;exitY=0.5;exitDx=0;exitDy=0;entryX=0;entryY=0.5;entryDx=0;entryDy=0;" edge="1" parent="_aW_NcULGUtRf_7XObZv-213" source="_aW_NcULGUtRf_7XObZv-219" target="_aW_NcULGUtRf_7XObZv-224">
          <mxGeometry width="50" height="50" relative="1" as="geometry">
            <mxPoint x="105" y="89" as="sourcePoint" />
            <mxPoint x="25" y="49" as="targetPoint" />
          </mxGeometry>
        </mxCell>
        <mxCell id="_aW_NcULGUtRf_7XObZv-244" value="" style="endArrow=none;html=1;rounded=0;exitX=1;exitY=0.5;exitDx=0;exitDy=0;entryX=0;entryY=0.5;entryDx=0;entryDy=0;" edge="1" parent="_aW_NcULGUtRf_7XObZv-213" source="_aW_NcULGUtRf_7XObZv-219" target="_aW_NcULGUtRf_7XObZv-223">
          <mxGeometry width="50" height="50" relative="1" as="geometry">
            <mxPoint x="105" y="59" as="sourcePoint" />
            <mxPoint x="25" y="49" as="targetPoint" />
          </mxGeometry>
        </mxCell>
        <mxCell id="_aW_NcULGUtRf_7XObZv-245" value="" style="endArrow=none;html=1;rounded=0;exitX=1;exitY=0.5;exitDx=0;exitDy=0;entryX=0;entryY=0.5;entryDx=0;entryDy=0;" edge="1" parent="_aW_NcULGUtRf_7XObZv-213" source="_aW_NcULGUtRf_7XObZv-219" target="_aW_NcULGUtRf_7XObZv-222">
          <mxGeometry width="50" height="50" relative="1" as="geometry">
            <mxPoint x="105" y="59" as="sourcePoint" />
            <mxPoint x="25" y="85" as="targetPoint" />
          </mxGeometry>
        </mxCell>
        <mxCell id="_aW_NcULGUtRf_7XObZv-246" value="" style="endArrow=none;html=1;rounded=0;exitX=1;exitY=0.5;exitDx=0;exitDy=0;entryX=0;entryY=0.5;entryDx=0;entryDy=0;" edge="1" parent="_aW_NcULGUtRf_7XObZv-213" source="_aW_NcULGUtRf_7XObZv-219" target="_aW_NcULGUtRf_7XObZv-221">
          <mxGeometry width="50" height="50" relative="1" as="geometry">
            <mxPoint x="105" y="59" as="sourcePoint" />
            <mxPoint x="25" y="119" as="targetPoint" />
          </mxGeometry>
        </mxCell>
        <mxCell id="_aW_NcULGUtRf_7XObZv-247" value="" style="endArrow=none;html=1;rounded=0;exitX=1;exitY=0.5;exitDx=0;exitDy=0;entryX=0;entryY=0.5;entryDx=0;entryDy=0;" edge="1" parent="_aW_NcULGUtRf_7XObZv-213" source="_aW_NcULGUtRf_7XObZv-220" target="_aW_NcULGUtRf_7XObZv-224">
          <mxGeometry width="50" height="50" relative="1" as="geometry">
            <mxPoint x="105" y="59" as="sourcePoint" />
            <mxPoint x="25" y="49" as="targetPoint" />
          </mxGeometry>
        </mxCell>
        <mxCell id="_aW_NcULGUtRf_7XObZv-248" value="" style="endArrow=none;html=1;rounded=0;exitX=1;exitY=0.5;exitDx=0;exitDy=0;entryX=0;entryY=0.5;entryDx=0;entryDy=0;" edge="1" parent="_aW_NcULGUtRf_7XObZv-213" source="_aW_NcULGUtRf_7XObZv-220" target="_aW_NcULGUtRf_7XObZv-223">
          <mxGeometry width="50" height="50" relative="1" as="geometry">
            <mxPoint x="105" y="29" as="sourcePoint" />
            <mxPoint x="25" y="49" as="targetPoint" />
          </mxGeometry>
        </mxCell>
        <mxCell id="_aW_NcULGUtRf_7XObZv-249" value="" style="endArrow=none;html=1;rounded=0;exitX=1;exitY=0.5;exitDx=0;exitDy=0;entryX=0;entryY=0.5;entryDx=0;entryDy=0;" edge="1" parent="_aW_NcULGUtRf_7XObZv-213" source="_aW_NcULGUtRf_7XObZv-220" target="_aW_NcULGUtRf_7XObZv-222">
          <mxGeometry width="50" height="50" relative="1" as="geometry">
            <mxPoint x="105" y="29" as="sourcePoint" />
            <mxPoint x="25" y="85" as="targetPoint" />
          </mxGeometry>
        </mxCell>
        <mxCell id="_aW_NcULGUtRf_7XObZv-250" value="" style="endArrow=none;html=1;rounded=0;exitX=1;exitY=0.5;exitDx=0;exitDy=0;entryX=0;entryY=0.5;entryDx=0;entryDy=0;" edge="1" parent="_aW_NcULGUtRf_7XObZv-213" source="_aW_NcULGUtRf_7XObZv-220" target="_aW_NcULGUtRf_7XObZv-221">
          <mxGeometry width="50" height="50" relative="1" as="geometry">
            <mxPoint x="105" y="29" as="sourcePoint" />
            <mxPoint x="25" y="119" as="targetPoint" />
          </mxGeometry>
        </mxCell>
        <mxCell id="_aW_NcULGUtRf_7XObZv-251" value="&lt;font style=&quot;font-size: 33px;&quot;&gt;X&lt;/font&gt;" style="text;html=1;align=center;verticalAlign=middle;resizable=0;points=[];autosize=1;strokeColor=none;fillColor=none;" vertex="1" parent="1">
          <mxGeometry x="270" y="775" width="50" height="50" as="geometry" />
        </mxCell>
        <mxCell id="_aW_NcULGUtRf_7XObZv-252" value="" style="endArrow=classic;html=1;rounded=0;entryX=0.5;entryY=0;entryDx=0;entryDy=0;" edge="1" parent="1" source="_aW_NcULGUtRf_7XObZv-251">
          <mxGeometry width="50" height="50" relative="1" as="geometry">
            <mxPoint x="320" y="801" as="sourcePoint" />
            <mxPoint x="415" y="800" as="targetPoint" />
          </mxGeometry>
        </mxCell>
        <mxCell id="_aW_NcULGUtRf_7XObZv-253" value="&lt;span style=&quot;font-size: 33px;&quot;&gt;Z&lt;/span&gt;" style="text;html=1;align=center;verticalAlign=middle;resizable=0;points=[];autosize=1;strokeColor=none;fillColor=none;" vertex="1" parent="1">
          <mxGeometry x="275" y="1055" width="40" height="50" as="geometry" />
        </mxCell>
        <mxCell id="_aW_NcULGUtRf_7XObZv-254" value="" style="endArrow=classic;html=1;rounded=0;entryX=0.5;entryY=0;entryDx=0;entryDy=0;" edge="1" parent="1" source="_aW_NcULGUtRf_7XObZv-253">
          <mxGeometry width="50" height="50" relative="1" as="geometry">
            <mxPoint x="320" y="1081" as="sourcePoint" />
            <mxPoint x="415" y="1080" as="targetPoint" />
          </mxGeometry>
        </mxCell>
        <mxCell id="_aW_NcULGUtRf_7XObZv-255" value="" style="endArrow=classic;html=1;rounded=0;entryX=0.5;entryY=0;entryDx=0;entryDy=0;" edge="1" parent="1">
          <mxGeometry width="50" height="50" relative="1" as="geometry">
            <mxPoint x="565" y="799.5" as="sourcePoint" />
            <mxPoint x="660" y="799.5" as="targetPoint" />
          </mxGeometry>
        </mxCell>
        <mxCell id="_aW_NcULGUtRf_7XObZv-256" value="&lt;span style=&quot;color: rgb(36, 41, 46); font-family: KaTeX_Math; font-style: italic; text-align: left; background-color: rgb(246, 248, 250);&quot;&gt;&lt;font style=&quot;font-size: 33px;&quot;&gt;Î¼&lt;/font&gt;&lt;/span&gt;&lt;span style=&quot;color: rgb(36, 41, 46); font-family: KaTeX_Math; font-size: 19.36px; font-style: italic; text-align: left; background-color: rgb(255, 255, 255);&quot;&gt;Î¸&lt;/span&gt;&lt;span style=&quot;color: rgb(36, 41, 46); font-family: KaTeX_Math; font-style: italic; text-align: left; background-color: rgb(255, 255, 255);&quot;&gt;&lt;font style=&quot;font-size: 33px;&quot;&gt;(z),&lt;/font&gt;&lt;/span&gt;&lt;span style=&quot;color: rgb(36, 41, 46); font-family: KaTeX_Main, &amp;quot;Times New Roman&amp;quot;, serif; text-align: left; background-color: rgb(255, 255, 255);&quot;&gt;&lt;font style=&quot;font-size: 33px;&quot;&gt;Î£&lt;/font&gt;&lt;/span&gt;&lt;span style=&quot;color: rgb(36, 41, 46); font-family: KaTeX_Math; font-size: 19.36px; font-style: italic; text-align: left; background-color: rgb(255, 255, 255);&quot;&gt;Î¸&lt;/span&gt;&lt;span style=&quot;color: rgb(36, 41, 46); font-family: KaTeX_Math; font-style: italic; text-align: left; background-color: rgb(255, 255, 255);&quot;&gt;&lt;font style=&quot;font-size: 33px;&quot;&gt;(z)&lt;/font&gt;&lt;/span&gt;" style="text;html=1;align=center;verticalAlign=middle;resizable=0;points=[];autosize=1;strokeColor=none;fillColor=none;" vertex="1" parent="1">
          <mxGeometry x="665" y="775" width="160" height="50" as="geometry" />
        </mxCell>
        <mxCell id="_aW_NcULGUtRf_7XObZv-257" value="&lt;span style=&quot;color: rgb(36, 41, 46); font-family: KaTeX_Math; font-style: italic; text-align: left; background-color: rgb(246, 248, 250);&quot;&gt;&lt;font style=&quot;font-size: 33px;&quot;&gt;Î¼&lt;/font&gt;&lt;/span&gt;&lt;span style=&quot;color: rgb(36, 41, 46); font-family: KaTeX_Math; font-size: 19.36px; font-style: italic; text-align: left; background-color: rgb(255, 255, 255);&quot;&gt;Ï&lt;/span&gt;&lt;span style=&quot;color: rgb(36, 41, 46); font-family: KaTeX_Math; font-style: italic; text-align: left; background-color: rgb(255, 255, 255);&quot;&gt;&lt;font style=&quot;font-size: 33px;&quot;&gt;(x),&lt;/font&gt;&lt;/span&gt;&lt;span style=&quot;color: rgb(36, 41, 46); font-family: KaTeX_Math; font-style: italic; text-align: left; background-color: rgb(246, 248, 250);&quot;&gt;&lt;font style=&quot;font-size: 33px;&quot;&gt;Ï&lt;sup style=&quot;font-size: 18px;&quot;&gt;2&lt;/sup&gt;&lt;/font&gt;&lt;/span&gt;&lt;span style=&quot;color: rgb(36, 41, 46); font-family: KaTeX_Math; font-style: italic; text-align: left; background-color: rgb(255, 255, 255);&quot;&gt;&lt;font style=&quot;font-size: 33px;&quot;&gt;(z)&lt;/font&gt;&lt;/span&gt;" style="text;html=1;align=center;verticalAlign=middle;resizable=0;points=[];autosize=1;strokeColor=none;fillColor=none;" vertex="1" parent="1">
          <mxGeometry x="665" y="1050" width="160" height="50" as="geometry" />
        </mxCell>
        <mxCell id="_aW_NcULGUtRf_7XObZv-258" value="" style="endArrow=classic;html=1;rounded=0;entryX=0.5;entryY=0;entryDx=0;entryDy=0;" edge="1" parent="1">
          <mxGeometry width="50" height="50" relative="1" as="geometry">
            <mxPoint x="565" y="1079.58" as="sourcePoint" />
            <mxPoint x="665" y="1079.58" as="targetPoint" />
          </mxGeometry>
        </mxCell>
      </root>
    </mxGraphModel>
  </diagram>
</mxfile>
